<svg width="257" height="221" viewBox="0 0 257 221" fill="none" xmlns="http://www.w3.org/2000/svg">
<path d="M135.243 95.9388L72.7041 113.541C107.476 143.107 231.81 112.612 253.937 95.133C257.346 92.0959 256.293 89.278 253.937 87.1374C249.053 82.6985 245.88 79.5757 244.95 79.5757L224 83.8524C221.831 84.1623 219.724 81.6211 222.637 79.5757L233.174 74.8651C219.801 68.3806 201.721 74.1628 166.482 87.1374L172.432 95.133L88.4474 29.6188L121.112 72.8198L111.814 77.0345C107.909 79.1418 110.761 88.501 116.463 86.3317L127.867 80.9393L151.668 111.182L135.243 95.9388Z" fill="url(#paint0_linear)"/>
<path d="M35.3916 84.9682C61.2378 -13.2103 184.519 -19.8423 222.141 65.0722" stroke="#030518" stroke-width="10"/>
<path d="M230.432 112.645C218.514 211.357 98.5504 234.837 50.0538 157.759" stroke="#030518" stroke-width="10"/>
<path d="M32.6022 131.02C40.3498 128.603 28.2572 110.382 0 82.3027C34.3996 78.2121 58.6343 140.193 132.826 132.508C91.1226 142.36 67.3175 146.971 23.6769 152.651C16.0532 153.644 12.7062 138.024 21.0736 134.987L32.6022 131.02Z" fill="#030518"/>
<defs>
<linearGradient id="paint0_linear" x1="89.3151" y1="135.851" x2="199.642" y2="116.017" gradientUnits="userSpaceOnUse">
<stop offset="0.328125" stopColor="#030518"/>
<stop offset="0.53125" stopColor="#05082E"/>
<stop offset="0.734375" stopColor="#BA4040"/>
<stop offset="1" stopColor="#C53030"/>
</linearGradient>
</defs>
</svg>
